# xmcd
# 
# Track frame offsets:
#     150
#     22686
#     35696
#     58023
#     76843
#     88972
#     103078
#     121149
#     137635
#     156799
#     170384
#     188859
#     211214
#     229594
#     250458
# 
# Disc length: 3591
# 
# Revision: 1
# Processed by: cddbd v1.5.2PL0 Copyright (c) Steve Scherf et al.
# Submitted via: fre:ac v1.1beta1pre5
# 
DISCID=c00e050f
DTITLE=Various Artist - Jazz Audiophile Voices II [CD1)
DYEAR=2012
DGENRE=Jazz
TTITLE0=Chyi - Stories
TTITLE1=Freya Lin - Bizarre Love Triangle
TTITLE2=Shunza - April 5 1969
TTITLE3=Olivia Ong - Sometimes When We Touch
TTITLE4=Janet Seidel - Perhaps
TTITLE5=Kelly Chen - Lover's Concerto
TTITLE6=Sandy Lam - The Rose
TTITLE7=Joanna Wang - Let's Start From Here
TTITLE8=Lisa Ono - Un Homme Et Une (A Man And A Woman)
TTITLE9=Jheena Lodwick - All My Loving
TTITLE10=Emi Fujita - Wishes (Le Couple Version)
TTITLE11=Eleanor McEvoy - The Rain Falls
TTITLE12=Susan Wong - You've Got A Friend
TTITLE13=Rua - Sound Of Silence
TTITLE14=Mary Black - The Moon And St Christopher
EXTD=
EXTT0=
EXTT1=
EXTT2=
EXTT3=
EXTT4=
EXTT5=
EXTT6=
EXTT7=
EXTT8=
EXTT9=
EXTT10=
EXTT11=
EXTT12=
EXTT13=
EXTT14=
PLAYORDER=
